<?xml version="1.0" encoding="utf-8"?>
<!-- Generator: Adobe Illustrator 20.0.0, SVG Export Plug-In . SVG Version: 6.00 Build 0)  -->
<svg version="1.1" xmlns="http://www.w3.org/2000/svg" xmlns:xlink="http://www.w3.org/1999/xlink" x="0px" y="0px"
	 viewBox="0 0 864 864" style="enable-background:new 0 0 864 864;" xml:space="preserve">
<g id="Layer_1">
	<path d="M113.6,34.6l-18,30.4h35.2L113.6,34.6z M111.5,44.3h3.7v6.4c-0.1,1.9-0.3,4-0.5,5.7c-0.9,0-1.8,0-2.7,0
		c-0.2-1.7-0.3-3.8-0.5-5.7V44.3z M111.3,59.7c0-2.5,3.9-2.5,3.9,0C115.3,62.3,111.3,62.3,111.3,59.7z"/>
	<path d="M45.6,47.9c0,3.7-3,6.6-6.6,6.6s-6.6-3-6.6-6.6s3-6.6,6.6-6.6S45.6,44.2,45.6,47.9z M52.2,41.2c-3.7,0-6.6,3-6.6,6.6
		s3,6.6,6.6,6.6s6.6-3,6.6-6.6S55.9,41.2,52.2,41.2z M32.3,65h26.5v-2.9l5.7,4l0.1-12.3l-5.8,3.9v-3.3H32.3V65z"/>
	<g>
		<path d="M165.8,36.5c10,0,10,15,0,15S155.8,36.5,165.8,36.5z M165.8,39.5c-5.8,0-5.8,9,0,9S171.7,39.5,165.8,39.5z"/>
		<path d="M179,51.4h-2.9V36.5h0.8l7.4,8.6v-8.2h2.9v14.9h-0.8l-7.4-8.2V51.4z"/>
		<path d="M163.7,54.5h0.3l6.1,15.1h-3.3l-0.6-1.6h-4.8l-0.6,1.6h-3.3L163.7,54.5z M165.1,65.3l-1.3-3.8l-1.4,3.8H165.1z"/>
		<path d="M172.1,69.6V55.1h2.9v14.6H172.1z"/>
		<path d="M185.6,69.6l-2.9-5.6h-1.4v5.6h-2.9V55.1h5.7c5.2,0,5.7,7.3,1.4,8.6l3.4,6H185.6z M181.2,61.2h2.6c2,0,2-3.3,0-3.3h-2.6
			V61.2z"/>
	</g>
</g>
<g id="SC_SIL_UUID:02cd075e-c900-41e2-8536-8d297d0889d1_CRC:2225114451">
</g>
</svg>
